<svg width="390" height="380" viewBox="0 0 390 380" fill="none" xmlns="http://www.w3.org/2000/svg">
<g clip-path="url(#clip0_98_122)">
<path d="M247.588 85.4608H142.5C140.105 85.4637 137.809 86.4146 136.116 88.1049C134.423 89.7952 133.47 92.0869 133.467 94.4773V327.614L132.263 327.981L106.483 335.861C105.261 336.233 103.942 336.106 102.814 335.507C101.686 334.909 100.842 333.888 100.467 332.669L23.7842 82.6416C23.411 81.4221 23.5382 80.1045 24.1378 78.9785C24.7374 77.8524 25.7604 77.0101 26.9819 76.6367L66.7084 64.4944L181.877 29.306L221.604 17.1638C222.208 16.978 222.843 16.9131 223.473 16.9728C224.103 17.0324 224.715 17.2154 225.273 17.5113C225.832 17.8072 226.327 18.2102 226.73 18.6973C227.132 19.1843 227.435 19.7458 227.62 20.3496L247.221 84.2586L247.588 85.4608Z" fill="#F2F2F2"/>
<path d="M270.519 84.2586L246.895 7.23353C246.502 5.95015 245.86 4.75665 245.005 3.72124C244.149 2.68583 243.098 1.82881 241.911 1.19913C240.723 0.56945 239.423 0.179459 238.085 0.0514549C236.747 -0.0765487 235.396 0.0599435 234.111 0.453118L178.258 17.5184L63.0952 52.7128L7.24212 69.7841C4.64748 70.5793 2.47495 72.3698 1.2014 74.7623C-0.0721427 77.1548 -0.342662 79.954 0.449237 82.5454L81.1909 345.785C81.8342 347.877 83.1322 349.708 84.8945 351.01C86.6568 352.311 88.7905 353.014 90.9827 353.017C91.9973 353.017 93.0061 352.865 93.9754 352.566L132.263 340.868L133.467 340.496V339.239L132.263 339.606L93.6202 351.418C91.33 352.115 88.8563 351.876 86.7418 350.755C84.6274 349.634 83.0448 347.721 82.3412 345.437L1.60569 82.1908C1.25707 81.0589 1.13557 79.8694 1.24814 78.6905C1.3607 77.5117 1.70511 76.3666 2.26167 75.3208C2.81823 74.275 3.57599 73.349 4.49156 72.596C5.40713 71.8429 6.46252 71.2775 7.5973 70.9322L63.4504 53.8609L178.613 18.6725L234.466 1.60123C235.327 1.33903 236.222 1.20534 237.122 1.2045C239.053 1.20883 240.932 1.83034 242.484 2.978C244.036 4.12567 245.179 5.73917 245.745 7.58218L269.261 84.2586L269.634 85.4608H270.887L270.519 84.2586Z" fill="#3F3D56"/>
<path d="M73.8772 76.8332C72.7165 76.8323 71.5867 76.4602 70.6534 75.7715C69.7201 75.0827 69.0325 74.1135 68.6915 73.0061L60.9351 47.7168C60.7267 47.0374 60.6543 46.3238 60.7222 45.6166C60.7901 44.9094 60.997 44.2224 61.3309 43.595C61.6648 42.9676 62.1193 42.412 62.6683 41.9599C63.2174 41.5078 63.8503 41.1681 64.5309 40.9602L170.48 8.58271C171.854 8.16406 173.339 8.30684 174.608 8.97971C175.877 9.65258 176.827 10.8006 177.249 12.1717L185.005 37.4614C185.424 38.8333 185.281 40.3152 184.607 41.5819C183.933 42.8486 182.783 43.7967 181.41 44.2182L75.4606 76.5957C74.9475 76.7529 74.4138 76.8329 73.8772 76.8332Z" fill="#656ACC"/>
<path d="M114.509 27.0223C121.16 27.0223 126.552 21.6399 126.552 15.0003C126.552 8.36071 121.16 2.97827 114.509 2.97827C107.857 2.97827 102.465 8.36071 102.465 15.0003C102.465 21.6399 107.857 27.0223 114.509 27.0223Z" fill="#656ACC"/>
<path d="M114.509 22.613C118.721 22.613 122.135 19.2047 122.135 15.0003C122.135 10.7959 118.721 7.38757 114.509 7.38757C110.297 7.38757 106.882 10.7959 106.882 15.0003C106.882 19.2047 110.297 22.613 114.509 22.613Z" fill="white"/>
<path d="M362.901 349.945H159.361C158.004 349.943 156.703 349.405 155.744 348.447C154.784 347.489 154.244 346.19 154.243 344.836V101.39C154.244 100.035 154.784 98.7365 155.744 97.7787C156.703 96.8208 158.004 96.282 159.361 96.2805H362.901C364.259 96.2821 365.56 96.8209 366.519 97.7787C367.479 98.7366 368.019 100.035 368.02 101.39V344.836C368.018 346.19 367.479 347.489 366.519 348.447C365.56 349.404 364.259 349.943 362.901 349.945Z" fill="#E6E6E6"/>
<path d="M269.261 84.2585H142.5C139.786 84.2624 137.184 85.3402 135.265 87.2558C133.346 89.1713 132.267 91.7683 132.263 94.4773V339.606L133.467 339.239V94.4773C133.47 92.0868 134.423 89.7951 136.116 88.1048C137.809 86.4145 140.105 85.4637 142.5 85.4607H269.634L269.261 84.2585ZM379.763 84.2585H142.5C139.786 84.2624 137.184 85.3402 135.265 87.2558C133.346 89.1713 132.267 91.7683 132.263 94.4773V369.781C132.267 372.49 133.346 375.087 135.265 377.003C137.184 378.918 139.786 379.996 142.5 380H379.763C382.477 379.996 385.078 378.918 386.997 377.003C388.916 375.087 389.996 372.49 390 369.781V94.4773C389.996 91.7683 388.916 89.1713 386.997 87.2558C385.078 85.3402 382.477 84.2624 379.763 84.2585ZM388.796 369.781C388.793 372.172 387.84 374.463 386.147 376.154C384.453 377.844 382.158 378.795 379.763 378.798H142.5C140.105 378.795 137.809 377.844 136.116 376.154C134.423 374.463 133.47 372.172 133.467 369.781V94.4773C133.47 92.0868 134.423 89.7951 136.116 88.1048C137.809 86.4145 140.105 85.4637 142.5 85.4607H379.763C382.158 85.4637 384.453 86.4145 386.147 88.1048C387.84 89.7951 388.793 92.0868 388.796 94.4773V369.781Z" fill="#3F3D56"/>
<path d="M316.533 110.707H205.73C204.293 110.705 202.916 110.135 201.899 109.121C200.883 108.106 200.312 106.731 200.31 105.297V78.8486C200.312 77.4143 200.883 76.0392 201.9 75.025C202.916 74.0108 204.293 73.4403 205.73 73.4387H316.533C317.97 73.4403 319.347 74.0108 320.363 75.025C321.38 76.0392 321.951 77.4143 321.953 78.8486V105.297C321.951 106.731 321.38 108.106 320.363 109.121C319.347 110.135 317.97 110.705 316.533 110.707Z" fill="#656ACC"/>
<path d="M261.131 75.242C267.783 75.242 273.175 69.8596 273.175 63.22C273.175 56.5804 267.783 51.198 261.131 51.198C254.48 51.198 249.088 56.5804 249.088 63.22C249.088 69.8596 254.48 75.242 261.131 75.242Z" fill="#656ACC"/>
<path d="M261.131 70.5425C265.183 70.5425 268.467 67.2641 268.467 63.22C268.467 59.1759 265.183 55.8975 261.131 55.8975C257.08 55.8975 253.796 59.1759 253.796 63.22C253.796 67.2641 257.08 70.5425 261.131 70.5425Z" fill="white"/>
</g>
<defs>
<clipPath id="clip0_98_122">
<rect width="390" height="380" fill="white"/>
</clipPath>
</defs>
</svg>
