<svg width="520" height="390" viewBox="0 0 520 390" fill="none" xmlns="http://www.w3.org/2000/svg">
<g clip-path="url(#clip0_98_141)">
<path d="M103.607 390C160.827 390 207.213 386.202 207.213 381.518C207.213 376.833 160.827 373.035 103.607 373.035C46.3862 373.035 0 376.833 0 381.518C0 386.202 46.3862 390 103.607 390Z" fill="#E6E6E6"/>
<path d="M79.1949 86.5341C97.2256 78.2671 119.683 83.505 141.615 87.1403C141.819 82.738 144.293 77.3801 141.702 74.3087C138.553 70.5773 138.843 66.6567 140.738 62.7135C145.582 52.63 138.641 41.9007 131.633 32.9794C130.054 30.9731 128.057 29.3967 125.807 28.3783C123.556 27.3599 121.114 26.9282 118.679 27.1182L105.697 28.1178C102.538 28.361 99.5232 29.6384 97.0561 31.7791C94.589 33.9198 92.7872 36.8217 91.8918 40.0964V40.0964C88.792 44.641 87.1329 49.173 88.1775 53.6814C83.5344 57.1018 82.7543 61.2305 84.8407 65.885C86.6099 68.8156 86.5911 71.6683 84.7603 74.442C82.3558 77.9783 80.5142 81.9214 79.311 86.1096L79.1949 86.5341Z" fill="#2F2E41"/>
<path d="M507.678 337.149H140.191C136.923 337.149 133.789 335.749 131.478 333.258C129.167 330.767 127.869 327.389 127.869 323.866C261.083 307.177 391.793 307.177 520 323.866C520 327.389 518.702 330.767 516.391 333.258C514.08 335.749 510.946 337.149 507.678 337.149Z" fill="#2F2E41"/>
<path d="M520 324.647L127.869 323.866L173.315 241.434L173.533 241.044V59.3741C173.533 57.169 173.936 54.9855 174.718 52.9483C175.501 50.911 176.648 49.0599 178.095 47.5007C179.541 45.9414 181.258 44.7046 183.148 43.8609C185.038 43.0171 187.064 42.5829 189.109 42.5831H456.585C458.631 42.5829 460.656 43.0171 462.546 43.8609C464.436 44.7046 466.153 45.9414 467.6 47.5007C469.046 49.0599 470.193 50.911 470.976 52.9483C471.759 54.9855 472.162 57.169 472.161 59.3741V242.294L520 324.647Z" fill="#3F3D56"/>
<path d="M188.754 54.3032C187.409 54.3048 186.119 54.8816 185.168 55.907C184.217 56.9323 183.682 58.3225 183.681 59.7726V225.417C183.682 226.867 184.217 228.257 185.168 229.283C186.12 230.308 187.409 230.885 188.754 230.886H459.115C460.46 230.885 461.749 230.308 462.701 229.282C463.652 228.257 464.187 226.867 464.188 225.417V59.7726C464.187 58.3225 463.652 56.9324 462.701 55.907C461.749 54.8817 460.46 54.3049 459.115 54.3032H188.754Z" fill="white"/>
<path d="M189.887 252.764C189.472 252.765 189.065 252.894 188.715 253.135C188.365 253.377 188.086 253.721 187.912 254.128L173.908 286.945C173.756 287.302 173.689 287.694 173.714 288.086C173.739 288.479 173.856 288.858 174.052 289.189C174.249 289.52 174.52 289.792 174.84 289.981C175.16 290.169 175.519 290.268 175.883 290.268H470.37C470.741 290.268 471.105 290.166 471.429 289.972C471.753 289.777 472.025 289.496 472.22 289.156C472.414 288.817 472.525 288.429 472.542 288.029C472.559 287.63 472.48 287.233 472.314 286.876L457.093 254.06C456.913 253.669 456.636 253.341 456.292 253.112C455.949 252.883 455.553 252.763 455.149 252.764H189.887Z" fill="#2F2E41"/>
<path d="M322.847 51.5685C324.649 51.5685 326.109 49.9943 326.109 48.0525C326.109 46.1106 324.649 44.5365 322.847 44.5365C321.046 44.5365 319.585 46.1106 319.585 48.0525C319.585 49.9943 321.046 51.5685 322.847 51.5685Z" fill="white"/>
<path d="M293.902 296.519C293.424 296.52 292.959 296.69 292.58 297.003C292.2 297.317 291.927 297.756 291.802 298.253L288.29 312.317C288.203 312.665 288.191 313.029 288.256 313.382C288.321 313.735 288.46 314.067 288.663 314.353C288.866 314.638 289.127 314.87 289.427 315.029C289.726 315.188 290.055 315.271 290.389 315.271H357.192C357.538 315.271 357.88 315.182 358.188 315.011C358.496 314.839 358.762 314.591 358.963 314.287C359.164 313.982 359.294 313.63 359.344 313.26C359.393 312.891 359.359 312.513 359.246 312.16L354.73 298.096C354.582 297.636 354.304 297.236 353.936 296.954C353.568 296.671 353.127 296.519 352.675 296.519H293.902Z" fill="#2F2E41"/>
<path d="M472.161 238.309V241.434H173.315L173.54 241.044V238.309H472.161Z" fill="#2F2E41"/>
<path d="M463.826 109.388C491.848 109.388 514.564 84.9005 514.564 54.6939C514.564 24.4873 491.848 0 463.826 0C435.804 0 413.088 24.4873 413.088 54.6939C413.088 84.9005 435.804 109.388 463.826 109.388Z" fill="#656ACC"/>
<path d="M484.846 78.5248H442.806C442.037 78.524 441.3 78.1944 440.757 77.6085C440.213 77.0226 439.907 76.2281 439.907 75.3994V48.0525C439.907 47.2239 440.213 46.4294 440.757 45.8435C441.3 45.2576 442.037 44.928 442.806 44.9271H484.846C485.615 44.928 486.352 45.2576 486.895 45.8435C487.439 46.4294 487.744 47.2239 487.745 48.0525V75.3994C487.744 76.2281 487.439 77.0226 486.895 77.6085C486.352 78.1945 485.615 78.524 484.846 78.5248ZM442.806 48.0525V75.3994H484.848L484.846 48.0525L442.806 48.0525Z" fill="white"/>
<path d="M476.873 48.0525H450.779V35.551C450.779 26.4962 456.266 19.9242 463.826 19.9242C471.386 19.9242 476.873 26.4962 476.873 35.551L476.873 48.0525ZM453.678 44.9271H473.974V35.551C473.974 28.1904 469.801 23.0496 463.826 23.0496C457.851 23.0496 453.678 28.1905 453.678 35.551L453.678 44.9271Z" fill="white"/>
<path d="M463.826 64.07C465.427 64.07 466.725 62.6707 466.725 60.9446C466.725 59.2185 465.427 57.8192 463.826 57.8192C462.225 57.8192 460.927 59.2185 460.927 60.9446C460.927 62.6707 462.225 64.07 463.826 64.07Z" fill="white"/>
<path d="M428.407 174.701H219.462C218.436 174.7 217.453 174.26 216.728 173.478C216.002 172.696 215.594 171.636 215.593 170.53V114.659C215.594 113.553 216.002 112.493 216.728 111.711C217.453 110.929 218.436 110.489 219.462 110.488H428.407C429.432 110.489 430.416 110.929 431.141 111.711C431.867 112.493 432.275 113.553 432.276 114.659V170.53C432.275 171.636 431.867 172.696 431.141 173.478C430.416 174.26 429.432 174.7 428.407 174.701V174.701ZM219.462 112.156C218.847 112.157 218.257 112.421 217.821 112.89C217.386 113.359 217.141 113.996 217.141 114.659V170.53C217.141 171.194 217.386 171.83 217.821 172.299C218.257 172.768 218.847 173.032 219.462 173.033H428.407C429.022 173.032 429.612 172.768 430.047 172.299C430.483 171.83 430.727 171.194 430.728 170.53V114.659C430.727 113.996 430.483 113.359 430.047 112.89C429.612 112.421 429.022 112.157 428.407 112.156L219.462 112.156Z" fill="#E6E6E6"/>
<path d="M251.928 157.442C260.633 157.442 267.69 149.835 267.69 140.451C267.69 131.067 260.633 123.46 251.928 123.46C243.223 123.46 236.166 131.067 236.166 140.451C236.166 149.835 243.223 157.442 251.928 157.442Z" fill="#E6E6E6"/>
<path d="M288.33 129.124C287.984 129.123 287.642 129.196 287.323 129.338C287.004 129.48 286.714 129.689 286.47 129.952C286.225 130.215 286.031 130.527 285.899 130.871C285.767 131.215 285.699 131.583 285.699 131.956C285.699 132.328 285.767 132.697 285.899 133.04C286.031 133.384 286.225 133.697 286.47 133.96C286.714 134.223 287.004 134.431 287.323 134.573C287.642 134.715 287.984 134.788 288.33 134.787H412.171C412.868 134.787 413.536 134.489 414.028 133.958C414.521 133.427 414.798 132.707 414.798 131.956C414.798 131.205 414.521 130.484 414.028 129.953C413.536 129.422 412.868 129.124 412.171 129.124H288.33Z" fill="#E6E6E6"/>
<path d="M288.33 146.114C287.633 146.114 286.965 146.413 286.472 146.944C285.98 147.475 285.703 148.195 285.703 148.946C285.703 149.697 285.98 150.418 286.472 150.949C286.965 151.48 287.633 151.778 288.33 151.778H341.619C342.316 151.778 342.984 151.48 343.477 150.949C343.969 150.418 344.246 149.697 344.246 148.946C344.246 148.195 343.969 147.475 343.477 146.944C342.984 146.413 342.316 146.114 341.619 146.114H288.33Z" fill="#E6E6E6"/>
<path d="M172.801 147.26L134.176 169.396L133.687 150.949C146.294 148.681 158.288 144.731 169.379 138.3L173.418 127.542C173.859 126.369 174.574 125.341 175.494 124.556C176.415 123.772 177.509 123.259 178.669 123.069C179.828 122.878 181.014 123.015 182.11 123.467C183.205 123.92 184.173 124.672 184.918 125.649V125.649C186.007 127.079 186.552 128.901 186.441 130.748C186.331 132.595 185.573 134.327 184.322 135.594L172.801 147.26Z" fill="#FFB8B8"/>
<path d="M78.425 275.065C78.1432 273.951 78.0834 272.785 78.2495 271.644C78.4155 270.503 78.8037 269.414 79.3885 268.446L87.8733 254.409C89.8801 251.089 92.9595 248.691 96.5139 247.68C100.068 246.67 103.844 247.118 107.109 248.939V248.939C103.543 255.482 104.041 261.222 108.341 266.21C101.665 269.723 95.4951 274.257 90.0221 279.672C89.023 280.406 87.8755 280.873 86.6754 281.032C85.4752 281.192 84.2571 281.04 83.1225 280.589C81.9879 280.138 80.9696 279.401 80.1525 278.441C79.3354 277.48 78.7431 276.322 78.425 275.065V275.065Z" fill="#2F2E41"/>
<path d="M174.561 256.711C173.277 259.018 171.464 260.93 169.297 262.265C167.13 263.599 164.682 264.31 162.186 264.331L105.819 264.791L103.374 249.507L128.309 241.601L107.286 224.209L130.265 195.221L172.003 237.155C174.442 239.606 176.027 242.886 176.493 246.445C176.958 250.005 176.276 253.629 174.561 256.711V256.711Z" fill="#2F2E41"/>
<path d="M97.0182 361.24H83.8172C71.9647 273.661 59.9 185.837 95.5514 153.057L137.599 160.436L132.221 198.91L108.752 227.898L97.0182 361.24Z" fill="#2F2E41"/>
<path d="M108.622 381.079C107.589 381.383 106.508 381.448 105.449 381.269C104.391 381.09 103.38 380.672 102.483 380.041L88.1491 377.964C85.0691 375.801 82.8443 372.482 81.9064 368.651C80.9684 364.819 81.3842 360.749 83.0731 357.229C89.1431 361.072 94.4679 360.536 99.0951 355.9C102.365 363.017 107.751 362.583 112.896 368.578C113.577 369.655 114.01 370.892 114.158 372.186C114.306 373.479 114.165 374.792 113.747 376.015C113.329 377.239 112.645 378.336 111.754 379.217C110.863 380.098 109.789 380.737 108.622 381.079V381.079Z" fill="#2F2E41"/>
<path d="M128.309 94.5555L103.863 88.231C107.923 79.2723 108.257 69.3038 106.308 58.7165L122.931 58.1894C123.452 71.3551 125.028 83.6551 128.309 94.5555Z" fill="#FFB8B8"/>
<path d="M135.028 176.305C117.232 189.377 104.658 176.752 95.0624 157.274C96.3958 145.355 94.2369 131.091 90.2384 115.593C88.4601 108.757 89.124 101.45 92.099 95.1163C95.074 88.7823 100.144 83.8807 106.308 81.3794V81.3794L127.331 90.8662C145.183 106.552 148.697 123.543 141.999 141.463L135.028 176.305Z" fill="#656ACC"/>
<path d="M83.8172 107.732L64.2603 118.8L98.9738 140.935L103.804 153.779C104.126 154.636 104.283 155.555 104.266 156.48C104.248 157.405 104.055 158.316 103.7 159.158C103.345 160 102.834 160.755 102.2 161.378C101.565 162 100.819 162.476 100.008 162.778V162.778C99.0856 163.121 98.1024 163.229 97.1351 163.093C96.1678 162.958 95.2426 162.583 94.4321 161.998C93.6216 161.413 92.9477 160.634 92.4632 159.722C91.9787 158.809 91.6968 157.788 91.6395 156.738L91.1511 147.787L47.0305 132.092C45.544 131.563 44.1886 130.677 43.067 129.5C41.9453 128.323 41.0869 126.886 40.5567 125.298V125.298C39.7838 122.984 39.7444 120.459 40.4448 118.118C41.1452 115.777 42.5457 113.752 44.4272 112.361L79.9058 86.1228L83.8172 107.732Z" fill="#FFB8B8"/>
<path d="M103.374 109.84C95.2177 105.987 87.8008 110.172 78.4391 113.529L76.9723 85.5958C86.2681 80.2549 95.131 78.8149 103.374 82.9606L103.374 109.84Z" fill="#656ACC"/>
<path d="M113.131 72.0258C121.751 72.0258 128.739 64.493 128.739 55.2009C128.739 45.9088 121.751 38.376 113.131 38.376C104.511 38.376 97.5232 45.9088 97.5232 55.2009C97.5232 64.493 104.511 72.0258 113.131 72.0258Z" fill="#FFB8B8"/>
<path d="M131.803 53.078C116.35 54.7096 104.575 51.9852 97.0492 44.228V37.981H130.492L131.803 53.078Z" fill="#2F2E41"/>
</g>
<defs>
<clipPath id="clip0_98_141">
<rect width="520" height="390" fill="white"/>
</clipPath>
</defs>
</svg>
