<svg width="240" height="70" viewBox="0 0 240 70" fill="none" xmlns="http://www.w3.org/2000/svg">
<path d="M144.766 4.90494C142.331 5.37325 141.619 6.48241 141.646 9.73591C141.674 13.4824 142.686 14.3451 146.955 14.3451C151.225 14.3451 152.155 13.507 152.155 9.61269C152.155 7.02466 151.772 6.01409 150.54 5.3486C149.637 4.88028 146.271 4.60916 144.766 4.90494Z" fill="#3F45BF"/>
<path d="M172.132 4.95419C170.189 5.29926 167.453 6.63025 165.948 8.01054C163.403 10.3028 162.28 13.1127 162.28 17.3028V19.7183H160.721C158.778 19.7183 157.437 20.2852 156.725 21.3943C156.315 22.0105 156.205 22.676 156.205 24.4015C156.233 27.9015 157.136 28.7887 160.693 28.8134L162.253 28.8381L162.335 38.8697C162.417 48.0881 162.472 48.9753 162.91 49.5915C163.703 50.6268 164.962 51.0212 167.535 51.0212C170.217 51.0212 171.421 50.5775 172.269 49.2956C172.789 48.4824 172.816 47.9647 172.898 38.6478L173.008 28.8628L176.319 28.8872C180.561 28.9365 181.464 28.6409 182.312 26.9647C182.778 26.0034 182.86 25.4366 182.75 23.7606C182.613 21.5915 182.23 20.7781 180.971 20.0387C180.342 19.669 179.603 19.595 176.593 19.595L172.953 19.6197V17.2288C172.953 15.4049 173.063 14.7887 173.364 14.5422C173.61 14.3697 174.896 14.1232 176.264 14.0246C180.588 13.6549 181.3 13.0141 181.3 9.41547C181.3 6.58097 180.78 5.49644 179.247 5.0035C178.153 4.65841 173.938 4.63378 172.132 4.95419Z" fill="#3F45BF"/>
<path d="M118.878 8.87324C118.44 8.99646 117.756 9.39084 117.373 9.76056C116.743 10.3767 116.716 10.5 116.634 15.0599L116.552 19.7183H114.992C113.186 19.7183 111.818 20.2606 110.997 21.2711C110.203 22.257 110.148 26.3978 110.915 27.4578C111.599 28.3697 112.94 28.8381 114.937 28.8381H116.579V35.3697C116.579 39.2147 116.716 42.419 116.88 43.1831C118.139 48.5316 122.983 51.2922 130.645 50.9719C134.586 50.824 135.462 50.0106 135.462 46.4119C135.462 44.3169 134.969 43.1831 133.765 42.6162C133.409 42.4437 132.041 42.2219 130.7 42.1478C128.483 42 128.21 41.926 127.608 41.31C126.978 40.6444 126.978 40.5703 126.978 34.7534V28.8628L130.481 28.8872C134.394 28.9366 135.188 28.7394 136.173 27.4084C137.241 26.0035 137.323 22.8239 136.392 21.1479C135.653 19.8662 134.613 19.5951 130.618 19.5951L127.033 19.6197L126.924 15.4049C126.842 10.8451 126.65 10.2042 125.254 9.26759C124.625 8.84859 124.023 8.74999 122.107 8.70071C120.794 8.67605 119.343 8.74999 118.878 8.87324Z" fill="#3F45BF"/>
<path d="M20.2509 19.3732C15.7081 20.2605 11.6306 22.5035 9.1129 25.4859C6.7047 28.345 5.69214 31.2288 5.69214 35C5.69214 38.9928 6.56787 41.5316 8.83925 44.4156C13.4915 50.2325 22.4402 52.7712 29.7468 50.3309C34.4812 48.7534 37.5735 46.1656 37.0536 44.169C36.7525 43.0106 35.6305 41.5071 34.1802 40.324C32.1824 38.7218 31.252 38.6972 28.3786 40.2993C26.1893 41.5316 24.3284 41.9506 22.4402 41.6796C18.7457 41.1372 16.447 38.5987 16.4196 35.0987C16.4196 33.6444 16.5565 33.1021 17.1859 32.0175C18.5815 29.6268 21.0171 28.4437 24.219 28.6409C25.6146 28.7147 26.2714 28.9366 28.1597 29.9225C31.8267 31.8697 33.3592 31.574 35.7126 28.4928C37.1357 26.6444 37.3271 25.0915 36.2872 23.9825C35.2473 22.8486 32.4013 20.9753 30.7593 20.3098C27.667 19.0774 23.6169 18.7077 20.2509 19.3732Z" fill="#3F45BF"/>
<path d="M97.4503 19.3732C95.9451 19.8662 95.0969 20.3098 93.9476 21.2958C93.4549 21.6901 93.0171 21.9859 92.9897 21.912C92.9351 21.8627 92.7159 21.4929 92.497 21.0986C91.7583 19.7923 90.4995 19.3486 87.7081 19.3486C84.8619 19.3732 83.7674 19.7676 83.0012 21.0247C82.536 21.7394 82.5085 22.8732 82.5085 35.2957C82.5085 48.5316 82.5085 48.7781 83.0832 49.4684C84.0957 50.7253 85.2176 51.0703 87.9816 50.9719C90.691 50.8732 91.8952 50.4297 92.5245 49.3203C92.7982 48.8275 92.9077 46.5353 92.9897 40.0528C93.0445 34.6056 93.1812 31.1797 93.3729 30.7359C94.3305 28.5422 98.3807 27.3838 100.981 28.5916C102.978 29.5035 105.14 29.1831 106.509 27.7288C107.302 26.8909 108.096 24.6972 108.096 23.3415C108.096 21.2958 107.083 20.2606 104.292 19.4718C102.212 18.8803 99.1743 18.831 97.4503 19.3732Z" fill="#3F45BF"/>
<path d="M55.2245 19.4718C49.3137 20.3838 44.1687 24.4753 41.9248 30.1197C41.2953 31.6972 41.2133 32.2888 41.2133 35C41.2133 37.81 41.2679 38.2782 42.0343 40.2007C45.3729 48.7044 54.951 53.1901 62.8051 49.9366C63.5987 49.6163 64.7206 48.9507 65.3227 48.4825L66.3901 47.595V48.4331C66.3901 49.3697 66.8004 49.9119 67.9772 50.4788C69.2086 51.0704 73.4231 51.0457 74.6545 50.4544C76.3511 49.6163 76.3511 49.7147 76.3511 35.0985C76.3511 20.5564 76.3785 20.7782 74.6819 19.8662C73.4503 19.2007 70.7686 19.0775 68.8802 19.5704C67.1013 20.0387 66.3901 20.7782 66.4172 22.1092L66.4446 22.9472L65.2133 21.9366C63.7355 20.6796 61.6283 19.8169 59.3296 19.4718C57.4138 19.2007 57.058 19.2007 55.2245 19.4718ZM62.203 29.4544C66.1983 31.6972 66.8279 36.8979 63.4618 39.905C62.2304 41.0141 61.1356 41.4578 59.2473 41.581C55.0056 41.8769 51.4481 38.9684 51.4481 35.1972C51.4481 32.7078 53.1721 30.2429 55.6626 29.1585C57.6875 28.2957 60.3695 28.4191 62.203 29.4544Z" fill="#3F45BF"/>
<path d="M145.122 19.4719C143.535 19.7676 142.905 20.1127 142.303 21.0247C141.783 21.7887 141.756 22.3803 141.756 35.074C141.756 49.4684 141.756 49.5422 143.261 50.4297C144.356 51.0703 148.242 51.2184 149.829 50.6515C152.1 49.8872 152.018 50.5281 152.018 35.2466C152.018 22.7254 151.991 21.7641 151.526 21C151.252 20.5317 150.623 20.0141 150.157 19.8416C148.953 19.3979 146.49 19.2254 145.122 19.4719Z" fill="#3F45BF"/>
<path d="M188.005 19.6937C186.746 20.3099 186.116 20.9507 185.651 22.1092C185.186 23.2923 185.104 43.1831 185.569 44.6866C185.925 45.8944 187.184 47.1513 188.661 47.7922C189.756 48.2853 190.276 48.31 199.854 48.31C208.201 48.31 209.897 48.3591 209.897 48.655C209.897 48.8275 209.815 49.3204 209.733 49.7394L209.569 50.5035L198.54 50.5775C185.979 50.6513 186.554 50.5528 185.323 52.8204C184.392 54.4719 184.666 55.7044 186.253 57.1338L187.43 58.2184L186.718 59.2044C185.241 61.176 185.952 63.6901 188.278 64.7747C190.358 65.736 192.41 65.2676 193.861 63.4929C194.682 62.5072 194.655 60.2888 193.806 59.2288L193.177 58.4401L201.277 58.3663C205.738 58.3169 209.432 58.3169 209.487 58.3663C209.542 58.4156 209.268 58.8591 208.912 59.3275C208.064 60.4613 208.009 62.31 208.803 63.4929C210.007 65.1938 213.072 65.7853 214.796 64.6269C217.095 63.0985 217.423 60.5844 215.535 58.6866C215.152 58.2922 215.07 58.0704 215.288 57.9966C216.027 57.75 217.067 56.8381 217.724 55.8275C218.408 54.7676 218.682 53.8063 222.048 41.1619C222.896 37.9825 224.046 33.595 224.62 31.426L225.688 27.4825L228.725 27.3591C231.215 27.236 231.927 27.1128 232.529 26.7184C235.211 24.9191 235.211 21.912 232.529 20.1127C231.818 19.6444 231.325 19.5951 226.591 19.5212C219.968 19.4226 218.518 19.7676 217.396 21.7395C217.149 22.1585 215.945 26.2994 214.714 30.9085L212.497 39.3134L203.822 39.3872L195.147 39.4366L195.065 30.7113L194.983 21.9859L194.134 21.0247C192.575 19.2747 190.057 18.7324 188.005 19.6937Z" fill="#3F45BF"/>
</svg>
